<?xml version='1.0' encoding='utf-8'?>
<svg xmlns="http://www.w3.org/2000/svg" width="589" height="134" viewBox="0 0 589 134" fill="none">
<path d="M0.999992 62.518L253.381 62L253.401 72.06L1.02064 72.578L0.999992 62.518Z" stroke="#1D1D1B" stroke-width="0.66" stroke-miterlimit="10" />
<path d="M326.933 50.1508L493.321 49.8093L493.342 59.8692L326.953 60.2108L326.933 50.1508Z" stroke="#1D1D1B" stroke-width="0.66" stroke-miterlimit="10" />
<path d="M287.224 65.146L358.381 65L358.401 75.06L287.245 75.206L287.224 65.146Z" stroke="#1D1D1B" stroke-width="0.66" stroke-miterlimit="10" />
<path d="M357.94 65L357.94 133L347.94 133L347.94 65L357.94 65Z" stroke="#1D1D1B" stroke-width="0.66" stroke-miterlimit="10" />
<rect width="28.3452" height="21.8903" rx="2" transform="matrix(1 8.74228e-08 8.74228e-08 -1 148.285 77.8904)" fill="#454545" />
<circle cx="8.98065" cy="8.98065" r="8.98065" transform="matrix(1 8.74228e-08 8.74228e-08 -1 153.618 75.9259)" fill="#4C5E4F" />
<path d="M176.402 61H179.693C180.636 61 181.402 62.2612 181.402 63.2642L181.401 71.0858C181.401 72.0876 180.636 73.35 179.693 73.35H176.402" fill="#6A6A6A" />
<path d="M148.402 73.35L145.11 73.35C144.167 73.35 143.402 72.0887 143.402 71.0858L143.402 63.2641C143.402 62.2624 144.167 61 145.11 61L148.402 61" fill="#6A6A6A" />
<rect width="28.3452" height="21.8903" rx="2" transform="matrix(4.37114e-08 1 1 -4.37114e-08 342.511 87.8839)" fill="#454545" />
<circle cx="8.98065" cy="8.98065" r="8.98065" transform="matrix(4.37114e-08 1 1 -4.37114e-08 344.476 93.2161)" fill="#4C5E4F" />
<path d="M359.401 116L359.401 119.292C359.401 120.235 358.14 121 357.137 121L349.316 121C348.314 121 347.051 120.235 347.051 119.292L347.051 116" fill="#6A6A6A" />
<path d="M347.051 88L347.051 84.7081C347.051 83.7654 348.313 83 349.316 83L357.137 83C358.139 83 359.401 83.7654 359.401 84.7081L359.401 88" fill="#6A6A6A" />
<path d="M120.401 73.4124H124.352C125.483 73.4124 126.402 72.5988 126.402 71.5956V62.8745C126.402 61.8724 125.483 61.0588 124.352 61.0588H120.401" fill="#6A6A6A" />
<path d="M85.1052 61.0589H81.1547C80.0234 61.0589 79.1049 61.8725 79.1049 62.8757V71.5968C79.1049 72.5989 80.0234 73.4125 81.1547 73.4125H85.1052" fill="#6A6A6A" />
<path d="M117.94 79H87.9402L88.5402 118.775C88.6592 126.666 95.0897 133 102.981 133V133C110.884 133 117.32 126.648 117.423 118.745L117.94 79Z" fill="#598ACF" />
<rect width="35.296" height="14.4714" transform="matrix(-1 0 0 1 120.401 60)" fill="#454545" />
<path d="M120.401 74.4715H85.1052V74.4715C85.1052 77.3955 87.4756 79.7659 90.3996 79.7659H115.107C118.031 79.7659 120.401 77.3955 120.401 74.4715V74.4715Z" fill="#598ACF" />
<path d="M56.4012 73.4124H60.3517C61.483 73.4124 62.4016 72.5988 62.4016 71.5956V62.8745C62.4016 61.8724 61.483 61.0588 60.3517 61.0588H56.4012" fill="#6A6A6A" />
<path d="M21.1052 61.0589H17.1547C16.0234 61.0589 15.1049 61.8725 15.1049 62.8757V71.5968C15.1049 72.5989 16.0234 73.4125 17.1547 73.4125H21.1052" fill="#6A6A6A" />
<path d="M53.9402 79H23.9402L24.5402 118.775C24.6592 126.666 31.0897 133 38.9812 133V133C46.8842 133 53.3196 126.648 53.4225 118.745L53.9402 79Z" fill="#598ACF" />
<rect width="35.296" height="14.4714" transform="matrix(-1 0 0 1 56.4012 60)" fill="#454545" />
<path d="M56.4012 74.4715H21.1052V74.4715C21.1052 77.3955 23.4756 79.7659 26.3996 79.7659H51.1068C54.0308 79.7659 56.4012 77.3955 56.4012 74.4715V74.4715Z" fill="#598ACF" />
<path d="M403.057 60.9471H398.839C397.631 60.9471 396.651 59.6195 396.651 58.5637L396.651 50.3304C396.651 49.2759 397.631 47.9471 398.839 47.9471H403.057" fill="#6A6A6A" />
<path d="M426.419 47.7082L430.637 47.7082C431.845 47.7082 432.825 49.0358 432.825 50.0915L432.825 58.3249C432.825 59.3794 431.845 60.7082 430.637 60.7082L426.419 60.7082" fill="#6A6A6A" />
<path d="M432.94 76.5C432.94 66.2827 424.657 58 414.44 58V58C404.223 58 395.94 66.2827 395.94 76.5V121H432.94V76.5Z" fill="#454545" />
<rect width="37" height="12" transform="matrix(-1 0 0 1 432.94 121)" fill="#323232" />
<rect width="23.3627" height="16.2283" transform="matrix(-1 0 0 1 426.419 46)" fill="black" />
<path d="M373.82 5.25736L373.82 1.79603C373.82 0.804802 374.484 -2.63105e-08 375.302 -5.87527e-08L382.416 -3.40773e-07C383.233 -3.73178e-07 383.897 0.804801 383.897 1.79603L383.897 5.25735" fill="#6A6A6A" />
<path d="M386.087 17.5245H371.629V32.4204H386.087V17.5245Z" fill="#454545" />
<rect width="7.44792" height="17.9626" transform="matrix(-1 0 0 1 382.582 32.4203)" fill="#454545" />
<path fill-rule="evenodd" clip-rule="evenodd" d="M381.538 54.7641V50.383H380.121V54.7641H381.538ZM377.595 54.7641V50.383H376.178V54.7641H377.595Z" fill="#F3BD6B" />
<path d="M387.401 5.87708C387.401 5.32479 386.954 4.87708 386.401 4.87708H371.401C370.849 4.87708 370.401 5.32479 370.401 5.87708V17.6271H387.401V5.87708Z" fill="#454545" />
<path d="M448.82 5.25736L448.82 1.79603C448.82 0.804802 449.484 -2.63105e-08 450.302 -5.87527e-08L457.416 -3.40773e-07C458.233 -3.73178e-07 458.897 0.804801 458.897 1.79603L458.897 5.25735" fill="#6A6A6A" />
<path d="M461.087 17.5245H446.629V32.4204H461.087V17.5245Z" fill="#454545" />
<rect width="7.44792" height="17.9626" transform="matrix(-1 0 0 1 457.582 32.4203)" fill="#454545" />
<path fill-rule="evenodd" clip-rule="evenodd" d="M456.538 54.7641V50.383H455.121V54.7641H456.538ZM452.595 54.7641V50.383H451.178V54.7641H452.595Z" fill="#F3BD6B" />
<path d="M462.401 5.87708C462.401 5.32479 461.954 4.87708 461.401 4.87708H446.401C445.849 4.87708 445.401 5.32479 445.401 5.87708V17.6271H462.401V5.87708Z" fill="#454545" />
<rect width="5" height="32" transform="matrix(-1 0 0 1 331.401 44)" fill="#454545" />
<rect width="118" height="32" transform="matrix(-1 0 0 1 326.401 44)" fill="#D9D9D9" />
<rect width="5" height="32" transform="matrix(-1 0 0 1 208.401 44)" fill="#454545" />
<path d="M203.401 74H200.11C199.167 74 198.401 73.1438 198.401 72.0881V62.9107C198.401 61.8562 199.167 61 200.11 61H203.401" fill="#6A6A6A" />
<path d="M331.401 76H334.035C334.789 76 335.401 75.1438 335.401 74.0881V64.9107C335.401 63.8562 334.789 63 334.035 63H331.401" fill="#6A6A6A" />
<path d="M331.401 61H334.035C334.789 61 335.401 60.1438 335.401 59.0881V49.9107C335.401 48.8562 334.789 48 334.035 48H331.401" fill="#6A6A6A" />
<path d="M518.76 43.81H499.9V41.23C499.9 40.55 500.45 40 501.13 40H517.53C518.21 40 518.76 40.55 518.76 41.23V43.81Z" fill="#1D1D1B" stroke="#1D1D1B" stroke-width="1.14" stroke-linecap="round" stroke-linejoin="round" />
<path d="M537.59 64.05H537.58C534.576 64.05 532.14 66.4856 532.14 69.49V107.31C532.14 110.314 534.576 112.75 537.58 112.75H537.59C540.595 112.75 543.03 110.314 543.03 107.31V69.49C543.03 66.4856 540.595 64.05 537.59 64.05Z" stroke="#1D1D1B" stroke-width="1.14" stroke-linecap="round" stroke-linejoin="round" />
<path d="M582.3 95.86V129.38C582.3 131.43 580.64 133.08 578.6 133.08H496.64C494.59 133.08 492.94 131.42 492.94 129.38V95.86C492.94 94.56 494 93.5 495.3 93.5C496.77 93.5 497.96 92.31 497.96 90.84V85.98C497.96 84.51 496.77 83.32 495.3 83.32C494 83.32 492.94 82.26 492.94 80.96V47.43C492.94 45.38 494.6 43.73 496.64 43.73H578.59C580.64 43.73 582.29 45.39 582.29 47.43V80.95C582.29 82.25 581.23 83.31 579.93 83.31H579.86C578.39 83.31 577.2 84.5 577.2 85.97V90.83C577.2 92.3 578.39 93.49 579.86 93.49H579.93C581.23 93.49 582.29 94.55 582.29 95.85L582.3 95.86Z" stroke="#1D1D1B" stroke-width="1.14" stroke-linecap="round" stroke-linejoin="round" />
<rect x="572.161" y="56.2126" width="3.37013" height="3.37013" fill="#454545" />
<path d="M551.94 55.6851C551.94 54.5805 552.836 53.6851 553.94 53.6851L567.503 53.6851C570.541 53.6851 573.003 56.1475 573.003 59.1851L573.003 59.2679C573.003 60.3724 572.108 61.2679 571.003 61.2679L553.94 61.2679C552.836 61.2679 551.94 60.3724 551.94 59.2679L551.94 55.6851Z" fill="#D9D9D9" />
<rect x="575.531" y="52.8425" width="6.74027" height="10.1104" fill="#454545" />
<rect x="582.271" y="52" width="5.89773" height="11.7955" fill="#454545" />
<g id="section_1"><path d="M0.999992 62.518L253.381 62L253.401 72.06L1.02064 72.578L0.999992 62.518Z" stroke="#1D1D1B" stroke-width="0.66" stroke-miterlimit="10" />
</g><g id="section_2"><path d="M326.933 50.1508L493.321 49.8093L493.342 59.8692L326.953 60.2108L326.933 50.1508Z" stroke="#1D1D1B" stroke-width="0.66" stroke-miterlimit="10" />
</g><g id="section_3"><path d="M287.224 65.146L358.381 65L358.401 75.06L287.245 75.206L287.224 65.146Z" stroke="#1D1D1B" stroke-width="0.66" stroke-miterlimit="10" />
</g><g id="section_4"><path d="M357.94 65L357.94 133L347.94 133L347.94 65L357.94 65Z" stroke="#1D1D1B" stroke-width="0.66" stroke-miterlimit="10" />
</g><g id="section_5"><rect width="28.3452" height="21.8903" rx="2" transform="matrix(1 8.74228e-08 8.74228e-08 -1 148.285 77.8904)" fill="#454545" />
</g><g id="section_6"><circle cx="8.98065" cy="8.98065" r="8.98065" transform="matrix(1 8.74228e-08 8.74228e-08 -1 153.618 75.9259)" fill="#4C5E4F" />
</g><g id="section_7"><path d="M176.402 61H179.693C180.636 61 181.402 62.2612 181.402 63.2642L181.401 71.0858C181.401 72.0876 180.636 73.35 179.693 73.35H176.402" fill="#6A6A6A" />
</g><g id="section_8"><path d="M148.402 73.35L145.11 73.35C144.167 73.35 143.402 72.0887 143.402 71.0858L143.402 63.2641C143.402 62.2624 144.167 61 145.11 61L148.402 61" fill="#6A6A6A" />
</g><g id="section_9"><rect width="28.3452" height="21.8903" rx="2" transform="matrix(4.37114e-08 1 1 -4.37114e-08 342.511 87.8839)" fill="#454545" />
</g><g id="section_10"><circle cx="8.98065" cy="8.98065" r="8.98065" transform="matrix(4.37114e-08 1 1 -4.37114e-08 344.476 93.2161)" fill="#4C5E4F" />
</g><g id="section_11"><path d="M359.401 116L359.401 119.292C359.401 120.235 358.14 121 357.137 121L349.316 121C348.314 121 347.051 120.235 347.051 119.292L347.051 116" fill="#6A6A6A" />
</g><g id="section_12"><path d="M347.051 88L347.051 84.7081C347.051 83.7654 348.313 83 349.316 83L357.137 83C358.139 83 359.401 83.7654 359.401 84.7081L359.401 88" fill="#6A6A6A" />
</g><g id="section_13"><path d="M120.401 73.4124H124.352C125.483 73.4124 126.402 72.5988 126.402 71.5956V62.8745C126.402 61.8724 125.483 61.0588 124.352 61.0588H120.401" fill="#6A6A6A" />
</g><g id="section_14"><path d="M85.1052 61.0589H81.1547C80.0234 61.0589 79.1049 61.8725 79.1049 62.8757V71.5968C79.1049 72.5989 80.0234 73.4125 81.1547 73.4125H85.1052" fill="#6A6A6A" />
</g><g id="section_15"><path d="M117.94 79H87.9402L88.5402 118.775C88.6592 126.666 95.0897 133 102.981 133V133C110.884 133 117.32 126.648 117.423 118.745L117.94 79Z" fill="#598ACF" />
</g><g id="section_16"><rect width="35.296" height="14.4714" transform="matrix(-1 0 0 1 120.401 60)" fill="#454545" />
</g><g id="section_17"><path d="M120.401 74.4715H85.1052V74.4715C85.1052 77.3955 87.4756 79.7659 90.3996 79.7659H115.107C118.031 79.7659 120.401 77.3955 120.401 74.4715V74.4715Z" fill="#598ACF" />
</g><g id="section_18"><path d="M56.4012 73.4124H60.3517C61.483 73.4124 62.4016 72.5988 62.4016 71.5956V62.8745C62.4016 61.8724 61.483 61.0588 60.3517 61.0588H56.4012" fill="#6A6A6A" />
</g><g id="section_19"><path d="M21.1052 61.0589H17.1547C16.0234 61.0589 15.1049 61.8725 15.1049 62.8757V71.5968C15.1049 72.5989 16.0234 73.4125 17.1547 73.4125H21.1052" fill="#6A6A6A" />
</g><g id="section_20"><path d="M53.9402 79H23.9402L24.5402 118.775C24.6592 126.666 31.0897 133 38.9812 133V133C46.8842 133 53.3196 126.648 53.4225 118.745L53.9402 79Z" fill="#598ACF" />
</g><g id="section_21"><rect width="35.296" height="14.4714" transform="matrix(-1 0 0 1 56.4012 60)" fill="#454545" />
</g><g id="section_22"><path d="M56.4012 74.4715H21.1052V74.4715C21.1052 77.3955 23.4756 79.7659 26.3996 79.7659H51.1068C54.0308 79.7659 56.4012 77.3955 56.4012 74.4715V74.4715Z" fill="#598ACF" />
</g><g id="section_23"><path d="M403.057 60.9471H398.839C397.631 60.9471 396.651 59.6195 396.651 58.5637L396.651 50.3304C396.651 49.2759 397.631 47.9471 398.839 47.9471H403.057" fill="#6A6A6A" />
</g><g id="section_24"><path d="M426.419 47.7082L430.637 47.7082C431.845 47.7082 432.825 49.0358 432.825 50.0915L432.825 58.3249C432.825 59.3794 431.845 60.7082 430.637 60.7082L426.419 60.7082" fill="#6A6A6A" />
</g><g id="section_25"><path d="M432.94 76.5C432.94 66.2827 424.657 58 414.44 58V58C404.223 58 395.94 66.2827 395.94 76.5V121H432.94V76.5Z" fill="#454545" />
</g><g id="section_26"><rect width="37" height="12" transform="matrix(-1 0 0 1 432.94 121)" fill="#323232" />
</g><g id="section_27"><rect width="23.3627" height="16.2283" transform="matrix(-1 0 0 1 426.419 46)" fill="black" />
</g><g id="section_28"><path d="M373.82 5.25736L373.82 1.79603C373.82 0.804802 374.484 -2.63105e-08 375.302 -5.87527e-08L382.416 -3.40773e-07C383.233 -3.73178e-07 383.897 0.804801 383.897 1.79603L383.897 5.25735" fill="#6A6A6A" />
</g><g id="section_29"><path d="M386.087 17.5245H371.629V32.4204H386.087V17.5245Z" fill="#454545" />
</g><g id="section_30"><rect width="7.44792" height="17.9626" transform="matrix(-1 0 0 1 382.582 32.4203)" fill="#454545" />
</g><g id="section_31"><path fill-rule="evenodd" clip-rule="evenodd" d="M381.538 54.7641V50.383H380.121V54.7641H381.538ZM377.595 54.7641V50.383H376.178V54.7641H377.595Z" fill="#F3BD6B" />
</g><g id="section_32"><path d="M387.401 5.87708C387.401 5.32479 386.954 4.87708 386.401 4.87708H371.401C370.849 4.87708 370.401 5.32479 370.401 5.87708V17.6271H387.401V5.87708Z" fill="#454545" />
</g><g id="section_33"><path d="M448.82 5.25736L448.82 1.79603C448.82 0.804802 449.484 -2.63105e-08 450.302 -5.87527e-08L457.416 -3.40773e-07C458.233 -3.73178e-07 458.897 0.804801 458.897 1.79603L458.897 5.25735" fill="#6A6A6A" />
</g><g id="section_34"><path d="M461.087 17.5245H446.629V32.4204H461.087V17.5245Z" fill="#454545" />
</g><g id="section_35"><rect width="7.44792" height="17.9626" transform="matrix(-1 0 0 1 457.582 32.4203)" fill="#454545" />
</g><g id="section_36"><path fill-rule="evenodd" clip-rule="evenodd" d="M456.538 54.7641V50.383H455.121V54.7641H456.538ZM452.595 54.7641V50.383H451.178V54.7641H452.595Z" fill="#F3BD6B" />
</g><g id="section_37"><path d="M462.401 5.87708C462.401 5.32479 461.954 4.87708 461.401 4.87708H446.401C445.849 4.87708 445.401 5.32479 445.401 5.87708V17.6271H462.401V5.87708Z" fill="#454545" />
</g><g id="section_38"><rect width="5" height="32" transform="matrix(-1 0 0 1 331.401 44)" fill="#454545" />
</g><g id="section_39"><rect width="118" height="32" transform="matrix(-1 0 0 1 326.401 44)" fill="#D9D9D9" />
</g><g id="section_40"><rect width="5" height="32" transform="matrix(-1 0 0 1 208.401 44)" fill="#454545" />
</g><g id="section_41"><path d="M203.401 74H200.11C199.167 74 198.401 73.1438 198.401 72.0881V62.9107C198.401 61.8562 199.167 61 200.11 61H203.401" fill="#6A6A6A" />
</g><g id="section_42"><path d="M331.401 76H334.035C334.789 76 335.401 75.1438 335.401 74.0881V64.9107C335.401 63.8562 334.789 63 334.035 63H331.401" fill="#6A6A6A" />
</g><g id="section_43"><path d="M331.401 61H334.035C334.789 61 335.401 60.1438 335.401 59.0881V49.9107C335.401 48.8562 334.789 48 334.035 48H331.401" fill="#6A6A6A" />
</g><g id="section_44"><path d="M518.76 43.81H499.9V41.23C499.9 40.55 500.45 40 501.13 40H517.53C518.21 40 518.76 40.55 518.76 41.23V43.81Z" fill="#1D1D1B" stroke="#1D1D1B" stroke-width="1.14" stroke-linecap="round" stroke-linejoin="round" />
</g><g id="section_45"><path d="M537.59 64.05H537.58C534.576 64.05 532.14 66.4856 532.14 69.49V107.31C532.14 110.314 534.576 112.75 537.58 112.75H537.59C540.595 112.75 543.03 110.314 543.03 107.31V69.49C543.03 66.4856 540.595 64.05 537.59 64.05Z" stroke="#1D1D1B" stroke-width="1.14" stroke-linecap="round" stroke-linejoin="round" />
</g><g id="section_46"><path d="M582.3 95.86V129.38C582.3 131.43 580.64 133.08 578.6 133.08H496.64C494.59 133.08 492.94 131.42 492.94 129.38V95.86C492.94 94.56 494 93.5 495.3 93.5C496.77 93.5 497.96 92.31 497.96 90.84V85.98C497.96 84.51 496.77 83.32 495.3 83.32C494 83.32 492.94 82.26 492.94 80.96V47.43C492.94 45.38 494.6 43.73 496.64 43.73H578.59C580.64 43.73 582.29 45.39 582.29 47.43V80.95C582.29 82.25 581.23 83.31 579.93 83.31H579.86C578.39 83.31 577.2 84.5 577.2 85.97V90.83C577.2 92.3 578.39 93.49 579.86 93.49H579.93C581.23 93.49 582.29 94.55 582.29 95.85L582.3 95.86Z" stroke="#1D1D1B" stroke-width="1.14" stroke-linecap="round" stroke-linejoin="round" />
</g><g id="section_47"><rect x="572.161" y="56.2126" width="3.37013" height="3.37013" fill="#454545" />
</g><g id="section_48"><path d="M551.94 55.6851C551.94 54.5805 552.836 53.6851 553.94 53.6851L567.503 53.6851C570.541 53.6851 573.003 56.1475 573.003 59.1851L573.003 59.2679C573.003 60.3724 572.108 61.2679 571.003 61.2679L553.94 61.2679C552.836 61.2679 551.94 60.3724 551.94 59.2679L551.94 55.6851Z" fill="#D9D9D9" />
</g><g id="section_49"><rect x="575.531" y="52.8425" width="6.74027" height="10.1104" fill="#454545" />
</g><g id="section_50"><rect x="582.271" y="52" width="5.89773" height="11.7955" fill="#454545" />
</g></svg>