<?xml version="1.0" encoding="UTF-8" standalone="no"?>
<!-- Generator: Adobe Illustrator 19.2.1, SVG Export Plug-In . SVG Version: 6.00 Build 0)  -->

<svg
   xmlns:dc="http://purl.org/dc/elements/1.1/"
   xmlns:cc="http://creativecommons.org/ns#"
   xmlns:rdf="http://www.w3.org/1999/02/22-rdf-syntax-ns#"
   xmlns:svg="http://www.w3.org/2000/svg"
   xmlns="http://www.w3.org/2000/svg"
   xmlns:sodipodi="http://sodipodi.sourceforge.net/DTD/sodipodi-0.dtd"
   xmlns:inkscape="http://www.inkscape.org/namespaces/inkscape"
   version="1.1"
   id="Layer_1"
   x="0px"
   y="0px"
   viewBox="0 0 200 200"
   xml:space="preserve"
   sodipodi:docname="rapidssl-square.svg"
   width="200"
   height="200"
   inkscape:version="0.92.4 (5da689c313, 2019-01-14)"><metadata
   id="metadata53"><rdf:RDF><cc:Work
       rdf:about=""><dc:format>image/svg+xml</dc:format><dc:type
         rdf:resource="http://purl.org/dc/dcmitype/StillImage" /><dc:title /></cc:Work></rdf:RDF></metadata><defs
   id="defs51" /><sodipodi:namedview
   pagecolor="#ffffff"
   bordercolor="#666666"
   borderopacity="1"
   objecttolerance="10"
   gridtolerance="10"
   guidetolerance="10"
   inkscape:pageopacity="0"
   inkscape:pageshadow="2"
   inkscape:window-width="1920"
   inkscape:window-height="1137"
   id="namedview49"
   showgrid="false"
   inkscape:zoom="3.5222222"
   inkscape:cx="143.75008"
   inkscape:cy="74.697544"
   inkscape:window-x="-8"
   inkscape:window-y="-8"
   inkscape:window-maximized="1"
   inkscape:current-layer="Layer_1" />

<g
   id="g869"
   transform="translate(0,-3.7160883)"><g
     transform="matrix(1.5337516,0,0,1.5337516,-38.328869,15.428581)"
     id="g26">
	<g
   id="g24">
		<g
   id="g14">
			<path
   style="fill:#784d2b"
   inkscape:connector-curvature="0"
   id="path2"
   d="m 43.7,83.8 c 0,-4.9 -3.6,-7.3 -8,-7.3 H 25 v 23.1 h 4.6 v -8.3 h 4.7 l 4.1,8.3 h 5.3 l -4.4,-9 c 2.9,-1.1 4.4,-3.3 4.4,-6.8 z m -8.1,3.1 h -6 V 81 h 6 c 2,0 3.3,0.9 3.3,2.9 0,2.1 -1.1,3 -3.3,3 z" />
			<path
   style="fill:#784d2b"
   inkscape:connector-curvature="0"
   id="path4"
   d="m 52.5,81.9 c -2.8,0 -4.5,0.6 -6.5,1.7 l 1.8,3.2 c 1.6,-0.9 2.7,-1.2 4.8,-1.2 1.7,0 2.5,1 2.5,2.2 v 0.9 C 54.4,88.3 53.3,88 51.8,88 c -3.9,0 -7,1.9 -7,5.7 0,4.2 3.2,6.2 6.5,6.2 1.6,0 3.1,-0.7 3.9,-1.5 v 1.2 h 4.6 V 88 C 59.6,84.1 56.7,81.9 52.5,81.9 Z M 55,94.5 c -0.5,0.8 -1.7,1.6 -3.2,1.6 -1.9,0 -2.6,-1.1 -2.6,-2.3 0,-1.4 0.9,-2.2 2.6,-2.2 1.6,0 2.4,0.2 3.2,0.7 z" />
			<path
   style="fill:#784d2b"
   inkscape:connector-curvature="0"
   id="path6"
   d="m 70.1,81.9 c -1.7,0 -2.8,0.7 -3.7,1.5 V 82.3 H 61.8 V 106 l 4.6,-2.3 v -5.1 c 0.8,0.8 2.1,1.4 3.7,1.4 4.3,0 6.7,-3.6 6.7,-8.8 0,-6.5 -3,-9.3 -6.7,-9.3 z m -0.6,13.8 c -1.3,0 -2.4,-0.5 -3.1,-1.5 v -6.5 c 0.7,-0.9 1.4,-1.5 2.8,-1.5 1.8,0 3,1.5 3,5 0,3 -1,4.5 -2.7,4.5 z" />
			<rect
   style="fill:#784d2b"
   id="rect8"
   height="17.299999"
   width="4.5999999"
   y="82.300003"
   x="78.900002" />
			<path
   style="fill:#784d2b"
   inkscape:connector-curvature="0"
   id="path10"
   d="m 81.2,75.7 c -1.4,0 -2.6,1.2 -2.6,2.6 0,1.4 1.2,2.6 2.6,2.6 1.4,0 2.6,-1.2 2.6,-2.6 0,-1.5 -1.2,-2.6 -2.6,-2.6 z" />
			<path
   style="fill:#784d2b"
   inkscape:connector-curvature="0"
   id="path12"
   d="m 96.1,77.8 v 5.4 c -0.8,-0.8 -2.1,-1.4 -3.7,-1.4 -4.3,0 -6.7,3.6 -6.7,8.8 0,6.5 3,9.2 6.7,9.2 1.6,0 2.8,-0.7 3.7,-1.5 v 1.1 h 4.6 V 75.6 Z m 0,16.4 c -0.7,0.9 -1.4,1.5 -2.8,1.5 -1.8,0 -3,-1.5 -3,-5.1 0,-2.9 1,-4.4 2.7,-4.4 1.3,0 2.4,0.5 3.1,1.5 z" />
		</g>
		<g
   id="g22">
			<path
   style="fill:#eb501e"
   inkscape:connector-curvature="0"
   id="path16"
   d="m 112.9,85.5 c -3.7,-0.9 -4.7,-1.3 -4.7,-2.8 0,-1 0.8,-2.1 3.3,-2.1 2.1,0 3.8,0.9 5.2,2.4 l 3.3,-3.2 c -2.2,-2.3 -4.8,-3.6 -8.4,-3.6 -4.6,0 -8.3,2.6 -8.3,6.8 0,4.6 3,5.9 7.2,6.9 4.4,1 5.1,1.7 5.1,3.1 0,1.8 -1.3,2.5 -4,2.5 -2.2,0 -4.3,-0.8 -5.9,-2.6 l -3.3,3 c 1.7,2.6 5.1,4.2 9,4.2 6.3,0 9.1,-3 9.1,-7.4 0.1,-5.1 -3.9,-6.3 -7.6,-7.2 z" />
			<path
   style="fill:#eb501e"
   inkscape:connector-curvature="0"
   id="path18"
   d="m 131.9,85.5 c -3.7,-0.9 -4.7,-1.3 -4.7,-2.8 0,-1 0.8,-2.1 3.3,-2.1 2.1,0 3.8,0.9 5.2,2.4 l 3.3,-3.2 c -2.2,-2.3 -4.8,-3.6 -8.4,-3.6 -4.6,0 -8.3,2.6 -8.3,6.8 0,4.6 3,5.9 7.2,6.9 4.4,1 5.1,1.7 5.1,3.1 0,1.8 -1.3,2.5 -4,2.5 -2.2,0 -4.3,-0.8 -5.9,-2.6 l -3.3,3 c 1.7,2.6 5.1,4.2 9,4.2 6.3,0 9.1,-3 9.1,-7.4 0.1,-5.1 -3.9,-6.3 -7.6,-7.2 z" />
			<polygon
   style="fill:#eb501e"
   id="polygon20"
   points="142.7,99.6 155.4,99.6 152.6,95.1 147.3,95.1 147.3,76.5 142.7,76.5 " />
		</g>
	</g>
</g><g
     transform="matrix(1.7967935,0,0,1.7967935,-62.661299,-5.431424)"
     id="g34">
	<path
   style="fill:#784d2b"
   inkscape:connector-curvature="0"
   id="path28"
   d="m 72,45.3 h 35.6 c 2,0 3.7,-1.6 3.7,-3.7 0,-2 -1.6,-3.7 -3.7,-3.7 h -1.3 v -3.8 c 0,-8.8 -7.2,-16 -16,-16 -8.8,0 -16,7.2 -16,16 V 38 H 72 c -2,0 -3.7,1.6 -3.7,3.7 0.1,2 1.7,3.6 3.7,3.6 z m 9.3,-11.1 c 0,-5 4,-9 9,-9 5,0 9,4 9,9 V 38 h -18 z" />
	<path
   style="fill:#784d2b"
   inkscape:connector-curvature="0"
   id="path30"
   d="M 107.6,47.5 H 72 c -2,0 -3.7,1.6 -3.7,3.7 0,2 1.6,3.7 3.7,3.7 h 35.6 c 2,0 3.7,-1.6 3.7,-3.7 0,-2 -1.7,-3.7 -3.7,-3.7 z" />
	<path
   style="fill:#784d2b"
   inkscape:connector-curvature="0"
   id="path32"
   d="M 107.6,57.1 H 72 c -2,0 -3.7,1.6 -3.7,3.7 0,2 1.6,3.7 3.7,3.7 h 35.6 c 2,0 3.7,-1.6 3.7,-3.7 0,-2 -1.7,-3.7 -3.7,-3.7 z" />
</g></g>
<g
   id="g36"
   transform="translate(0,80)">
</g>
<g
   id="g38"
   transform="translate(0,80)">
</g>
<g
   id="g40"
   transform="translate(0,80)">
</g>
<g
   id="g42"
   transform="translate(0,80)">
</g>
<g
   id="g44"
   transform="translate(0,80)">
</g>
<g
   id="g46"
   transform="translate(0,80)">
</g>
</svg>